<svg width="24" height="24" viewBox="0 0 24 24" fill="none" xmlns="http://www.w3.org/2000/svg">
<path d="M15 10C15 11.6569 13.6569 13 12 13C10.3431 13 9 11.6569 9 10C9 8.34315 10.3431 7 12 7C13.6569 7 15 8.34315 15 10Z" stroke="black" stroke-width="1.5"/>
<path d="M20.0135 12.2139C20.5394 12.0558 20.8024 11.9767 20.9012 11.8439C21 11.7111 21 11.4975 21 11.0704V9.55081C21 9.12369 21 8.91013 20.9012 8.7773C20.8024 8.64446 20.5394 8.56544 20.0135 8.4074C18.3506 7.90774 17.3091 6.18304 17.6827 4.51437C17.8059 3.96394 17.8675 3.68872 17.8004 3.53767C17.7332 3.38662 17.5457 3.2808 17.1708 3.06915L15.7951 2.29266C15.4293 2.08617 15.2464 1.98293 15.0838 2.00242C14.9212 2.0219 14.7244 2.20608 14.3308 2.57445C13.0349 3.78744 10.9665 3.78739 9.67058 2.57437C9.27705 2.206 9.08028 2.02182 8.91765 2.00233C8.75503 1.98284 8.57212 2.08609 8.2063 2.29257L6.83064 3.06906C6.4557 3.2807 6.26823 3.38651 6.20108 3.53754C6.13392 3.68857 6.1955 3.96381 6.31867 4.5143C6.69204 6.18303 5.64975 7.90779 3.98655 8.40742C3.46058 8.56542 3.1976 8.64442 3.0988 8.77726C3 8.9101 3 9.12367 3 9.55081V11.0704C3 11.4975 3 11.7111 3.09879 11.8439C3.19758 11.9768 3.46057 12.0558 3.98655 12.2138C5.64944 12.7135 6.69091 14.4382 6.31731 16.1069C6.19408 16.6573 6.13246 16.9325 6.19961 17.0836C6.26677 17.2346 6.45425 17.3404 6.82921 17.5521L8.20487 18.3286C8.57072 18.5351 8.75364 18.6383 8.91629 18.6188C9.07893 18.5993 9.27566 18.415 9.66911 18.0466C10.9657 16.8326 13.0357 16.8325 14.3323 18.0466C14.7258 18.4149 14.9225 18.5992 15.0851 18.6187C15.2478 18.6382 15.4307 18.535 15.7965 18.3285L17.1722 17.552C17.5472 17.3403 17.7347 17.2345 17.8018 17.0834C17.869 16.9324 17.8073 16.6572 17.684 16.1068C17.3102 14.4382 18.3509 12.7135 20.0135 12.2139Z" stroke="black" stroke-width="1.5" stroke-linecap="round"/>
</svg>
