<svg width="65" height="64" viewBox="0 0 65 64" fill="none" xmlns="http://www.w3.org/2000/svg">
<path d="M58.7956 14.378C59.934 17.3236 58.3375 19.3403 55.2476 21.3268C52.7543 22.9296 49.5777 24.666 46.2119 27.6347C42.9124 30.5448 39.6921 34.0499 36.8305 37.5C33.9804 40.936 31.558 44.2294 29.8463 46.668C28.7401 48.2438 27.1967 50.5944 27.1967 50.5944C26.1081 52.3166 24.1512 53.359 22.0528 53.3328C19.954 53.3067 18.0262 52.2166 16.9848 50.467C14.3227 45.9947 12.2685 44.2285 11.3244 43.5942C8.7982 41.8965 5.83398 41.6456 5.83398 37.6894C5.83398 34.5478 8.48702 32.0008 11.7597 32.0008C14.0703 32.0862 16.2179 32.9947 18.1208 34.2736C19.3372 35.091 20.6257 36.172 21.9659 37.595C23.5389 35.4496 25.4344 32.9742 27.5593 30.4126C30.6452 26.6926 34.2876 22.7016 38.1937 19.2564C42.0335 15.8698 46.4729 12.6996 51.1785 11.0235C54.2471 9.93061 57.6572 11.4325 58.7956 14.378Z" fill="#FF69B4"/>
</svg>
